<?xml version="1.0" encoding="utf-8"?>
<!-- Generator: Adobe Illustrator 27.3.1, SVG Export Plug-In . SVG Version: 6.00 Build 0)  -->
<svg version="1.1" id="Layer_1" xmlns="http://www.w3.org/2000/svg" xmlns:xlink="http://www.w3.org/1999/xlink" x="0px" y="0px"
	 viewBox="0 0 40 42" style="enable-background:new 0 0 40 42;" xml:space="preserve">
<style type="text/css">
	.st0{fill:#99CCFF;}
	.st1{font-family:'AppleSDGothicNeo-Heavy-KSCpc-EUC-H';}
	.st2{font-size:9.4278px;}
</style>
<g>
	<path class="st0" d="M12,33.5C5.66,33.5,0.5,28.34,0.5,22v-2C0.5,13.66,5.66,8.5,12,8.5h16c6.34,0,11.5,5.16,11.5,11.5v2
		c0,6.34-5.16,11.5-11.5,11.5H12z"/>
	<path d="M28,9c6.07,0,11,4.93,11,11v2c0,6.07-4.93,11-11,11H12C5.93,33,1,28.07,1,22v-2C1,13.93,5.93,9,12,9H28 M28,8H12
		C5.4,8,0,13.4,0,20v2c0,6.6,5.4,12,12,12h16c6.6,0,12-5.4,12-12v-2C40,13.4,34.6,8,28,8L28,8z"/>
</g>
<text transform="matrix(1.2377 0 0 1 4.6509 24.1976)" class="st1 st2">COUP</text>
</svg>
