<svg version="1.1" id="Layer_1" xmlns="http://www.w3.org/2000/svg" xmlns:xlink="http://www.w3.org/1999/xlink" x="0px"
	y="0px" width="100%" viewBox="0 0 1000 1000" enable-background="new 0 0 1000 1000" xml:space="preserve">
	<path fill="#000000" opacity="0.000000" stroke="none" d="
M680.000000,1001.000000 
	C453.333344,1001.000000 227.166672,1001.000000 1.000000,1001.000000 
	C1.000000,667.666687 1.000000,334.333344 1.000000,1.000000 
	C334.333344,1.000000 667.666687,1.000000 1001.000000,1.000000 
	C1001.000000,334.333344 1001.000000,667.666687 1001.000000,1001.000000 
	C894.166687,1001.000000 787.333313,1001.000000 680.000000,1001.000000 
M423.869751,330.637482 
	C408.715424,346.457764 393.622040,362.337006 378.389252,378.081390 
	C363.696838,393.267303 348.812531,408.267609 334.132416,423.465240 
	C331.540314,426.148682 328.891388,429.110291 327.390350,432.447876 
	C323.836121,440.350647 326.822937,447.148560 332.487488,452.903992 
	C337.578033,458.076172 342.929626,462.991425 347.877594,468.637512 
	C339.723145,477.120972 331.594482,485.629425 323.408112,494.081909 
	C311.394623,506.485901 299.366943,518.876282 287.295197,531.223572 
	C275.389465,543.401001 276.386169,555.762756 287.679077,566.232056 
	C296.449341,574.362610 304.930481,582.804504 313.582794,591.063232 
	C318.964142,596.199707 324.521362,601.154541 329.832672,606.361206 
	C347.620514,623.798950 365.333191,641.313232 382.269135,658.941833 
	C361.487091,653.448853 340.691071,648.008057 319.926514,642.449829 
	C293.936707,635.492859 268.069916,628.044006 241.949646,621.622559 
	C231.512726,619.056702 224.039429,620.597351 220.478729,633.070801 
	C216.873215,645.701233 213.098541,658.312195 210.262558,671.123047 
	C208.437256,679.368347 210.953354,686.526489 221.200409,689.922119 
	C225.393616,691.311646 229.707687,692.341248 233.978577,693.490723 
	C261.395081,700.869568 288.812317,708.245728 316.234467,715.603516 
	C335.939606,720.890625 355.652802,726.147705 376.648682,731.762085 
	C373.701477,732.773438 371.945679,733.507568 370.122009,733.979004 
	C361.864380,736.113892 353.553925,738.050537 345.324127,740.285522 
	C321.414429,746.778564 297.545349,753.421265 273.638977,759.926697 
	C254.966675,765.007812 236.230179,769.855835 217.589508,775.049011 
	C210.899796,776.912659 205.645218,784.633484 207.153412,790.599548 
	C210.852539,805.232605 214.810349,819.808105 219.062912,834.289673 
	C221.038620,841.017639 228.008179,844.537415 235.036026,843.076477 
	C240.497177,841.941223 245.954865,840.749756 251.346939,839.328552 
	C278.323303,832.218201 305.281586,825.038879 332.238495,817.854797 
	C357.441833,811.138123 382.643524,804.414978 407.831390,797.640442 
	C440.320282,788.902405 472.755341,779.958740 505.318359,771.507324 
	C510.129517,770.258606 514.891602,768.368469 520.633606,770.062744 
	C543.452148,776.795837 566.482056,782.820007 589.473694,788.957153 
	C616.589600,796.195068 643.757507,803.238220 670.883606,810.438416 
	C704.202881,819.282471 737.483093,828.274536 770.821472,837.045654 
	C781.294067,839.800964 787.920044,836.099182 790.869568,825.926270 
	C794.388367,813.789612 797.530884,801.543579 800.816040,789.339417 
	C804.087341,777.186646 797.623413,770.209534 788.528992,767.980469 
	C782.954895,766.614136 777.458679,764.933105 771.909058,763.463196 
	C740.981079,755.271301 710.037903,747.136658 679.122192,738.898804 
	C670.921143,736.713562 662.798584,734.234070 653.593506,731.588928 
	C676.690918,725.412781 698.678589,719.537842 720.663696,713.653381 
	C742.694519,707.756653 764.729248,701.874329 786.749146,695.937012 
	C796.202515,693.388000 800.705627,686.032410 798.362488,676.781311 
	C795.343750,664.862610 792.016418,653.021667 789.045105,641.091736 
	C785.975830,628.768860 779.213562,624.521484 766.680054,627.734619 
	C755.239929,630.667542 743.875000,633.892334 732.467590,636.953735 
	C700.602783,645.505493 668.747681,654.094116 636.853027,662.533081 
	C630.574524,664.194397 624.136169,665.251465 617.744690,665.912964 
	C626.224792,657.047852 634.688416,648.166809 643.189575,639.321899 
	C652.386230,629.753479 661.580017,620.181702 670.843079,610.677673 
	C686.144958,594.977783 701.524780,579.353882 716.815735,563.643372 
	C720.041199,560.329407 723.166748,556.895813 726.089478,553.314270 
	C731.500916,546.683105 731.592590,535.487915 725.773987,529.409790 
	C715.881714,519.076355 705.674622,509.037354 695.419312,499.060211 
	C683.317078,487.286224 671.022888,475.709412 659.062378,463.400330 
	C664.413208,457.724304 669.761353,452.045837 675.115356,446.372864 
	C683.054688,437.960632 683.034180,428.468872 674.824341,420.378845 
	C668.210938,413.861908 661.334900,407.612305 654.671448,401.145111 
	C640.724670,387.609131 626.868042,373.980133 612.917542,360.448029 
	C607.805115,355.488953 602.435181,350.794342 597.349121,345.809235 
	C579.795288,328.603607 562.314819,311.323090 545.093628,293.438690 
	C550.915588,287.280121 556.844360,281.218170 562.528503,274.934906 
	C567.832092,269.072266 567.623718,264.953369 561.776855,259.323425 
	C547.053955,245.146713 532.171448,231.135483 517.472229,216.934464 
	C502.635254,202.600357 487.948029,188.111359 473.182281,173.703445 
	C467.752106,168.404861 463.050537,168.355316 457.794861,173.741547 
	C449.666809,182.071396 441.704620,190.562988 433.582306,198.898544 
	C417.907074,214.985336 402.141815,230.984497 386.471466,247.076080 
	C380.798218,252.901855 375.269043,258.868866 369.730927,264.824249 
	C368.981689,265.629974 368.422546,266.689911 368.019989,267.727081 
	C366.341370,272.052216 368.846893,276.520538 374.067322,281.489777 
	C390.908020,297.520203 407.486938,313.825653 423.869751,330.637482 
M606.499207,172.999084 
	C614.664795,164.494034 622.796204,155.955841 631.013672,147.501221 
	C634.051514,144.375717 634.003052,141.416489 630.930176,138.497635 
	C626.355347,134.152145 621.655090,129.938324 617.096741,125.575966 
	C607.488892,116.381310 597.882935,107.183258 588.395874,97.864677 
	C585.247192,94.771889 582.467651,95.505562 579.861145,98.190125 
	C566.436829,112.016693 553.096741,125.925056 539.706543,139.784790 
	C535.826233,143.801132 535.742676,145.304184 539.731628,149.209244 
	C553.278442,162.471069 567.051086,175.509415 580.332520,189.030869 
	C584.616577,193.392319 588.619873,192.193222 592.035645,188.404388 
	C596.593445,183.348770 601.336121,178.459793 606.499207,172.999084 
z" />
	<path fill="#F9DB57" opacity="1.000000" stroke="none" d="
M658.811951,464.047089 
	C671.022888,475.709412 683.317078,487.286224 695.419312,499.060211 
	C705.674622,509.037354 715.881714,519.076355 725.773987,529.409790 
	C731.592590,535.487915 731.500916,546.683105 726.089478,553.314270 
	C723.166748,556.895813 720.041199,560.329407 716.815735,563.643372 
	C701.524780,579.353882 686.144958,594.977783 670.843079,610.677673 
	C661.580017,620.181702 652.386230,629.753479 643.189575,639.321899 
	C634.688416,648.166809 626.224792,657.047852 617.761963,666.313232 
	C617.779175,666.713501 617.905701,666.728760 617.614502,666.503662 
	C616.881714,666.831360 616.440125,667.384094 615.660522,668.084167 
	C613.626038,668.868347 611.969055,669.651733 610.227295,670.120178 
	C580.357727,678.153015 550.495789,686.216492 520.572083,694.043152 
	C517.527588,694.839478 513.913391,694.858887 510.873810,694.059265 
	C473.722992,684.286377 436.618134,674.337585 399.535370,664.308594 
	C393.959534,662.800598 388.557251,660.651001 383.074677,658.798218 
	C365.333191,641.313232 347.620514,623.798950 329.832672,606.361206 
	C324.521362,601.154541 318.964142,596.199707 313.582794,591.063232 
	C304.930481,582.804504 296.449341,574.362610 287.679077,566.232056 
	C276.386169,555.762756 275.389465,543.401001 287.295197,531.223572 
	C299.366943,518.876282 311.394623,506.485901 323.408112,494.081909 
	C331.594482,485.629425 339.723145,477.120972 348.349365,468.260620 
	C353.830872,462.824799 358.889923,457.813690 363.841461,452.698456 
	C382.713074,433.203217 401.509979,413.635498 420.412140,394.169983 
	C436.653320,377.444824 453.022278,360.843872 469.287994,344.142456 
	C475.091461,338.183563 480.588623,331.918213 486.529694,326.103424 
	C493.944366,318.846375 503.706512,317.898315 511.592407,323.447601 
	C514.435974,325.448639 517.085327,327.775757 519.597961,330.188751 
	C538.326782,348.174866 557.029724,366.188202 575.679077,384.256622 
	C590.388367,398.507782 604.999878,412.859924 619.673950,427.147583 
	C631.482971,438.645599 643.306885,450.128571 655.169617,461.571106 
	C656.210938,462.575562 657.589844,463.230042 658.811951,464.047089 
z" />
	<path fill="#9A473A" opacity="1.000000" stroke="none" d="
M382.671906,658.869995 
	C388.557251,660.651001 393.959534,662.800598 399.535370,664.308594 
	C436.618134,674.337585 473.722992,684.286377 510.873810,694.059265 
	C513.913391,694.858887 517.527588,694.839478 520.572083,694.043152 
	C550.495789,686.216492 580.357727,678.153015 610.227295,670.120178 
	C611.969055,669.651733 613.626038,668.868347 615.992676,668.091064 
	C617.077209,667.543274 617.491455,667.136047 617.905701,666.728760 
	C617.905701,666.728760 617.779175,666.713501 617.775391,666.650391 
	C624.136169,665.251465 630.574524,664.194397 636.853027,662.533081 
	C668.747681,654.094116 700.602783,645.505493 732.467590,636.953735 
	C743.875000,633.892334 755.239929,630.667542 766.680054,627.734619 
	C779.213562,624.521484 785.975830,628.768860 789.045105,641.091736 
	C792.016418,653.021667 795.343750,664.862610 798.362488,676.781311 
	C800.705627,686.032410 796.202515,693.388000 786.749146,695.937012 
	C764.729248,701.874329 742.694519,707.756653 720.663696,713.653381 
	C698.678589,719.537842 676.690918,725.412781 653.593506,731.588928 
	C662.798584,734.234070 670.921143,736.713562 679.122192,738.898804 
	C710.037903,747.136658 740.981079,755.271301 771.909058,763.463196 
	C777.458679,764.933105 782.954895,766.614136 788.528992,767.980469 
	C797.623413,770.209534 804.087341,777.186646 800.816040,789.339417 
	C797.530884,801.543579 794.388367,813.789612 790.869568,825.926270 
	C787.920044,836.099182 781.294067,839.800964 770.821472,837.045654 
	C737.483093,828.274536 704.202881,819.282471 670.883606,810.438416 
	C643.757507,803.238220 616.589600,796.195068 589.473694,788.957153 
	C566.482056,782.820007 543.452148,776.795837 520.633606,770.062744 
	C514.891602,768.368469 510.129517,770.258606 505.318359,771.507324 
	C472.755341,779.958740 440.320282,788.902405 407.831390,797.640442 
	C382.643524,804.414978 357.441833,811.138123 332.238495,817.854797 
	C305.281586,825.038879 278.323303,832.218201 251.346939,839.328552 
	C245.954865,840.749756 240.497177,841.941223 235.036026,843.076477 
	C228.008179,844.537415 221.038620,841.017639 219.062912,834.289673 
	C214.810349,819.808105 210.852539,805.232605 207.153412,790.599548 
	C205.645218,784.633484 210.899796,776.912659 217.589508,775.049011 
	C236.230179,769.855835 254.966675,765.007812 273.638977,759.926697 
	C297.545349,753.421265 321.414429,746.778564 345.324127,740.285522 
	C353.553925,738.050537 361.864380,736.113892 370.122009,733.979004 
	C371.945679,733.507568 373.701477,732.773438 376.648682,731.762085 
	C355.652802,726.147705 335.939606,720.890625 316.234467,715.603516 
	C288.812317,708.245728 261.395081,700.869568 233.978577,693.490723 
	C229.707687,692.341248 225.393616,691.311646 221.200409,689.922119 
	C210.953354,686.526489 208.437256,679.368347 210.262558,671.123047 
	C213.098541,658.312195 216.873215,645.701233 220.478729,633.070801 
	C224.039429,620.597351 231.512726,619.056702 241.949646,621.622559 
	C268.069916,628.044006 293.936707,635.492859 319.926514,642.449829 
	C340.691071,648.008057 361.487091,653.448853 382.671906,658.869995 
z" />
	<path fill="#F2B13D" opacity="1.000000" stroke="none" d="
M658.937134,463.723694 
	C657.589844,463.230042 656.210938,462.575562 655.169617,461.571106 
	C643.306885,450.128571 631.482971,438.645599 619.673950,427.147583 
	C604.999878,412.859924 590.388367,398.507782 575.679077,384.256622 
	C557.029724,366.188202 538.326782,348.174866 519.597961,330.188751 
	C517.085327,327.775757 514.435974,325.448639 511.592407,323.447601 
	C503.706512,317.898315 493.944366,318.846375 486.529694,326.103424 
	C480.588623,331.918213 475.091461,338.183563 469.287994,344.142456 
	C453.022278,360.843872 436.653320,377.444824 420.412140,394.169983 
	C401.509979,413.635498 382.713074,433.203217 363.841461,452.698456 
	C358.889923,457.813690 353.830872,462.824799 348.493591,467.951874 
	C342.929626,462.991425 337.578033,458.076172 332.487488,452.903992 
	C326.822937,447.148560 323.836121,440.350647 327.390350,432.447876 
	C328.891388,429.110291 331.540314,426.148682 334.132416,423.465240 
	C348.812531,408.267609 363.696838,393.267303 378.389252,378.081390 
	C393.622040,362.337006 408.715424,346.457764 424.344177,330.258789 
	C427.145874,327.776306 429.599457,325.795197 431.780670,323.549530 
	C451.004639,303.757111 470.096466,283.835571 489.419067,264.140320 
	C495.512756,257.929077 503.868103,257.432281 510.540070,263.114960 
	C517.990295,269.460510 524.714844,276.650482 531.927002,283.286194 
	C536.043213,287.073456 540.501892,290.488464 544.806396,294.071075 
	C562.314819,311.323090 579.795288,328.603607 597.349121,345.809235 
	C602.435181,350.794342 607.805115,355.488953 612.917542,360.448029 
	C626.868042,373.980133 640.724670,387.609131 654.671448,401.145111 
	C661.334900,407.612305 668.210938,413.861908 674.824341,420.378845 
	C683.034180,428.468872 683.054688,437.960632 675.115356,446.372864 
	C669.761353,452.045837 664.413208,457.724304 658.937134,463.723694 
z" />
	<path fill="#E2792E" opacity="1.000000" stroke="none" d="
M544.950012,293.754883 
	C540.501892,290.488464 536.043213,287.073456 531.927002,283.286194 
	C524.714844,276.650482 517.990295,269.460510 510.540070,263.114960 
	C503.868103,257.432281 495.512756,257.929077 489.419067,264.140320 
	C470.096466,283.835571 451.004639,303.757111 431.780670,323.549530 
	C429.599457,325.795197 427.145874,327.776306 424.492676,329.952606 
	C407.486938,313.825653 390.908020,297.520203 374.067322,281.489777 
	C368.846893,276.520538 366.341370,272.052216 368.019989,267.727081 
	C368.422546,266.689911 368.981689,265.629974 369.730927,264.824249 
	C375.269043,258.868866 380.798218,252.901855 386.471466,247.076080 
	C402.141815,230.984497 417.907074,214.985336 433.582306,198.898544 
	C441.704620,190.562988 449.666809,182.071396 457.794861,173.741547 
	C463.050537,168.355316 467.752106,168.404861 473.182281,173.703445 
	C487.948029,188.111359 502.635254,202.600357 517.472229,216.934464 
	C532.171448,231.135483 547.053955,245.146713 561.776855,259.323425 
	C567.623718,264.953369 567.832092,269.072266 562.528503,274.934906 
	C556.844360,281.218170 550.915588,287.280121 544.950012,293.754883 
z" />
	<path fill="#E2792E" opacity="1.000000" stroke="none" d="
M606.249268,173.249161 
	C601.336121,178.459793 596.593445,183.348770 592.035645,188.404388 
	C588.619873,192.193222 584.616577,193.392319 580.332520,189.030869 
	C567.051086,175.509415 553.278442,162.471069 539.731628,149.209244 
	C535.742676,145.304184 535.826233,143.801132 539.706543,139.784790 
	C553.096741,125.925056 566.436829,112.016693 579.861145,98.190125 
	C582.467651,95.505562 585.247192,94.771889 588.395874,97.864677 
	C597.882935,107.183258 607.488892,116.381310 617.096741,125.575966 
	C621.655090,129.938324 626.355347,134.152145 630.930176,138.497635 
	C634.003052,141.416489 634.051514,144.375717 631.013672,147.501221 
	C622.796204,155.955841 614.664795,164.494034 606.249268,173.249161 
z" />
	<path fill="#000000" opacity="1.000000" stroke="none" d="
M617.614502,666.503662 
	C617.491455,667.136047 617.077209,667.543274 616.330750,667.943604 
	C616.440125,667.384094 616.881714,666.831360 617.614502,666.503662 
z" />
</svg>